<svg width="151" height="78" viewBox="0 0 151 78" fill="none" xmlns="http://www.w3.org/2000/svg">
<path d="M10.9773 50.0682V65H2.64205V30.0909H10.7045V43.625H10.9943C11.5852 42.0114 12.5511 40.75 13.892 39.8409C15.2443 38.9318 16.8977 38.4773 18.8523 38.4773C20.6932 38.4773 22.2955 38.8864 23.6591 39.7045C25.0227 40.5114 26.0795 41.6534 26.8295 43.1307C27.5909 44.608 27.9659 46.3352 27.9545 48.3125V65H19.6193V49.9489C19.6307 48.4943 19.267 47.358 18.5284 46.5398C17.7898 45.7216 16.75 45.3125 15.4091 45.3125C14.5341 45.3125 13.7614 45.5057 13.0909 45.892C12.4318 46.267 11.9148 46.8068 11.5398 47.5114C11.1761 48.2159 10.9886 49.0682 10.9773 50.0682ZM40.5384 65.4432C38.8679 65.4432 37.3849 65.1648 36.0895 64.608C34.8054 64.0398 33.7884 63.1875 33.0384 62.0511C32.2997 60.9034 31.9304 59.4659 31.9304 57.7386C31.9304 56.2841 32.1861 55.0568 32.6974 54.0568C33.2088 53.0568 33.9134 52.2443 34.8111 51.6193C35.7088 50.9943 36.7429 50.5227 37.9134 50.2045C39.0838 49.875 40.3338 49.6534 41.6634 49.5398C43.152 49.4034 44.3509 49.2614 45.2599 49.1136C46.169 48.9545 46.8281 48.733 47.2372 48.4489C47.6577 48.1534 47.8679 47.7386 47.8679 47.2045V47.1193C47.8679 46.2443 47.5668 45.5682 46.9645 45.0909C46.3622 44.6136 45.5497 44.375 44.527 44.375C43.4247 44.375 42.5384 44.6136 41.8679 45.0909C41.1974 45.5682 40.7713 46.2273 40.5895 47.0682L32.902 46.7955C33.1293 45.2045 33.7145 43.7841 34.6577 42.5341C35.6122 41.2727 36.919 40.2841 38.5781 39.5682C40.2486 38.8409 42.2543 38.4773 44.5952 38.4773C46.2656 38.4773 47.8054 38.6761 49.2145 39.0739C50.6236 39.4602 51.8509 40.0284 52.8963 40.7784C53.9418 41.517 54.7486 42.4261 55.3168 43.5057C55.8963 44.5852 56.1861 45.8182 56.1861 47.2045V65H48.3452V61.3523H48.1406C47.6747 62.2386 47.0781 62.9886 46.3509 63.6023C45.6349 64.2159 44.7884 64.6761 43.8111 64.983C42.8452 65.2898 41.7543 65.4432 40.5384 65.4432ZM43.1122 59.9886C44.0099 59.9886 44.8168 59.8068 45.5327 59.4432C46.2599 59.0795 46.8395 58.5795 47.2713 57.9432C47.7031 57.2955 47.919 56.5455 47.919 55.6932V53.2045C47.6804 53.3295 47.3906 53.4432 47.0497 53.5455C46.7202 53.6477 46.3565 53.7443 45.9588 53.8352C45.5611 53.9261 45.152 54.0057 44.7315 54.0739C44.3111 54.142 43.9077 54.2045 43.5213 54.2614C42.7372 54.3864 42.0668 54.5795 41.5099 54.8409C40.9645 55.1023 40.544 55.4432 40.2486 55.8636C39.9645 56.2727 39.8224 56.7614 39.8224 57.3295C39.8224 58.1932 40.1293 58.8523 40.7429 59.3068C41.3679 59.7614 42.1577 59.9886 43.1122 59.9886ZM61.2827 65V30.0909H69.6179V43.3011H69.7884C70.1293 42.5057 70.6122 41.7386 71.2372 41C71.8736 40.2614 72.6804 39.6591 73.6577 39.1932C74.6463 38.7159 75.8281 38.4773 77.2031 38.4773C79.0213 38.4773 80.7202 38.9545 82.2997 39.9091C83.8906 40.8636 85.1747 42.3352 86.152 44.3239C87.1293 46.3125 87.6179 48.8466 87.6179 51.9261C87.6179 54.892 87.1463 57.375 86.2031 59.375C85.2713 61.375 84.0099 62.875 82.419 63.875C80.8395 64.875 79.0838 65.375 77.152 65.375C75.8338 65.375 74.6918 65.1591 73.7259 64.7273C72.7599 64.2955 71.9474 63.7273 71.2884 63.0227C70.6406 62.3182 70.1406 61.5625 69.7884 60.7557H69.5327V65H61.2827ZM69.4474 51.9091C69.4474 53.3182 69.6349 54.5455 70.0099 55.5909C70.3963 56.6364 70.9474 57.4489 71.6634 58.0284C72.3906 58.5966 73.2599 58.8807 74.2713 58.8807C75.294 58.8807 76.1634 58.5966 76.8793 58.0284C77.5952 57.4489 78.1349 56.6364 78.4986 55.5909C78.8736 54.5455 79.0611 53.3182 79.0611 51.9091C79.0611 50.5 78.8736 49.2784 78.4986 48.2443C78.1349 47.2102 77.5952 46.4091 76.8793 45.8409C76.1747 45.2727 75.3054 44.9886 74.2713 44.9886C73.2486 44.9886 72.3793 45.267 71.6634 45.8239C70.9474 46.3807 70.3963 47.1761 70.0099 48.2102C69.6349 49.2443 69.4474 50.4773 69.4474 51.9091ZM91.9858 65V38.8182H100.321V65H91.9858ZM96.1619 35.767C94.9915 35.767 93.9858 35.3807 93.1449 34.608C92.304 33.8239 91.8835 32.8807 91.8835 31.7784C91.8835 30.6875 92.304 29.7557 93.1449 28.983C93.9858 28.1989 94.9915 27.8068 96.1619 27.8068C97.3438 27.8068 98.3494 28.1989 99.179 28.983C100.02 29.7557 100.44 30.6875 100.44 31.7784C100.44 32.8807 100.02 33.8239 99.179 34.608C98.3494 35.3807 97.3438 35.767 96.1619 35.767ZM120.405 38.8182V44.9545H103.888V38.8182H120.405ZM107.348 32.5455H115.683V56.767C115.683 57.2784 115.763 57.6932 115.922 58.0114C116.092 58.3182 116.337 58.5398 116.655 58.6761C116.973 58.8011 117.354 58.8636 117.797 58.8636C118.115 58.8636 118.45 58.8352 118.803 58.7784C119.166 58.7102 119.439 58.6534 119.621 58.608L120.882 64.625C120.484 64.7386 119.922 64.8807 119.195 65.0511C118.479 65.2216 117.621 65.3295 116.621 65.375C114.666 65.4659 112.99 65.2386 111.592 64.6932C110.206 64.1364 109.143 63.2727 108.405 62.1023C107.678 60.9318 107.325 59.4602 107.348 57.6875V32.5455ZM147.188 46.8125L139.534 47.017C139.455 46.4716 139.239 45.9886 138.886 45.5682C138.534 45.1364 138.074 44.8011 137.506 44.5625C136.949 44.3125 136.301 44.1875 135.562 44.1875C134.597 44.1875 133.773 44.3807 133.091 44.767C132.42 45.1534 132.091 45.6761 132.102 46.3352C132.091 46.8466 132.295 47.2898 132.716 47.6648C133.148 48.0398 133.915 48.3409 135.017 48.5682L140.062 49.5227C142.676 50.0227 144.619 50.8523 145.892 52.0114C147.176 53.1705 147.824 54.7045 147.835 56.6136C147.824 58.4091 147.29 59.9716 146.233 61.3011C145.188 62.6307 143.756 63.6648 141.938 64.4034C140.119 65.1307 138.04 65.4943 135.699 65.4943C131.96 65.4943 129.011 64.7273 126.852 63.1932C124.705 61.6477 123.477 59.5795 123.17 56.9886L131.403 56.7841C131.585 57.7386 132.057 58.4659 132.818 58.9659C133.58 59.4659 134.551 59.7159 135.733 59.7159C136.801 59.7159 137.67 59.517 138.341 59.1193C139.011 58.7216 139.352 58.1932 139.364 57.5341C139.352 56.9432 139.091 56.4716 138.58 56.1193C138.068 55.7557 137.267 55.4716 136.176 55.267L131.608 54.3977C128.983 53.9205 127.028 53.0398 125.744 51.7557C124.46 50.4602 123.824 48.8125 123.835 46.8125C123.824 45.0625 124.29 43.5682 125.233 42.3295C126.176 41.0795 127.517 40.125 129.256 39.4659C130.994 38.8068 133.045 38.4773 135.409 38.4773C138.955 38.4773 141.75 39.2216 143.795 40.7102C145.841 42.1875 146.972 44.2216 147.188 46.8125Z" fill="white"/>
<rect x="0.5" y="0.5" width="15" height="15" rx="3.5" fill="#0C4A6E" stroke="#0C4A6E"/>
<rect x="20.5" y="0.5" width="15" height="15" rx="3.5" fill="#0369A1" stroke="#0369A1"/>
<rect x="40.5" y="0.5" width="15" height="15" rx="3.5" fill="#0284C7" stroke="#0284C7"/>
<rect x="60.5" y="0.5" width="15" height="15" rx="3.5" fill="#0EA5E9" stroke="#0EA5E9"/>
<rect x="80.5" y="0.5" width="15" height="15" rx="3.5" fill="#38BDF8" stroke="#38BDF8"/>
<rect x="100.5" y="0.5" width="15" height="15" rx="3.5" fill="#93C5FD" stroke="#93C5FD"/>
</svg>
